<?xml version="1.0" encoding="utf-8"?>
<!-- Generator: Adobe Illustrator 25.2.3, SVG Export Plug-In . SVG Version: 6.00 Build 0)  -->
<svg version="1.1" xmlns="http://www.w3.org/2000/svg" xmlns:xlink="http://www.w3.org/1999/xlink" x="0px" y="0px"
	 viewBox="0 0 478.204 500" style="enable-background:new 0 0 478.204 500;" xml:space="preserve">
<g id="ai2html-settings">
	<rect x="1664.743" y="-823.271" style="fill:none;" width="400" height="248.746"/>
	<text transform="matrix(1 0 0 1 1664.7426 -812.6211)" style="display:none;"><tspan x="0" y="0" style="display:inline;fill:#231F20; font-family:'MyriadPro-Regular'; font-size:15px;">ai2html-settings</tspan><tspan x="0" y="18" style="display:inline;fill:#231F20; font-family:'MyriadPro-Regular'; font-size:15px;">settings_version: 0.60</tspan><tspan x="0" y="36" style="display:inline;fill:#231F20; font-family:'MyriadPro-Regular'; font-size:15px;">image_format: svg</tspan><tspan x="0" y="54" style="display:inline;fill:#231F20; font-family:'MyriadPro-Regular'; font-size:15px;">responsiveness: dynamic</tspan><tspan x="0" y="72" style="display:inline;fill:#231F20; font-family:'MyriadPro-Regular'; font-size:15px;">output: one-file</tspan><tspan x="0" y="90" style="display:inline;fill:#231F20; font-family:'MyriadPro-Regular'; font-size:15px;">html_output_path: </tspan><tspan x="122.908" y="90" style="display:inline;fill:#231F20; font-family:'MyriadPro-Regular'; font-size:15px;">../memoria-migracion/src/ai2html/</tspan><tspan x="0" y="108" style="display:inline;fill:#231F20; font-family:'MyriadPro-Regular'; font-size:15px;">html_output_extension: .html</tspan><tspan x="0" y="126" style="display:inline;fill:#231F20; font-family:'MyriadPro-Regular'; font-size:15px;">image_output_path: ../assets/</tspan><tspan x="186.747" y="126" style="display:inline;fill:#231F20; font-family:'MyriadPro-Regular'; font-size:15px;">img/</tspan><tspan x="0" y="144" style="display:inline;fill:#231F20; font-family:'MyriadPro-Regular'; font-size:15px;">image_source_path: assets/img/</tspan><tspan x="0" y="162" style="display:inline;fill:#231F20; font-family:'MyriadPro-Regular'; font-size:15px;">local_preview_template: </tspan><tspan x="0" y="180" style="display:inline;fill:#231F20; font-family:'MyriadPro-Regular'; font-size:15px;">png_number_of_colors: 128</tspan><tspan x="0" y="198" style="display:inline;fill:#231F20; font-family:'MyriadPro-Regular'; font-size:15px;">jpg_quality: 60</tspan><tspan x="0" y="216" style="display:inline;fill:#231F20; font-family:'MyriadPro-Regular'; font-size:15px;">project_name: _defenders</tspan></text>
</g>
<g id="base_map" style="display:none;">
	
		<image style="display:inline;overflow:visible;" width="2069" height="1485" xlink:href="../../../../../../../Applications/MAMP/htdocs/movimiento/defenders@2x-80.jpg"  transform="matrix(0.2149 0 0 0.2149 -703.9193 -704.4995)">
	</image>
	
		<image style="display:inline;overflow:visible;" width="2069" height="1485" xlink:href="../../../../../../../Applications/MAMP/htdocs/movimiento/defenders@2x-80.jpg"  transform="matrix(0.3431 0 0 0.3431 -115.7939 -5.25)">
	</image>
	
		<image style="display:inline;overflow:visible;" width="2069" height="1485" xlink:href="../../../../../../../Applications/MAMP/htdocs/movimiento/defenders@2x-80.jpg"  transform="matrix(0.4403 0 0 0.4403 489.4104 -849.3065)">
	</image>
</g>
<g id="ref_1_" style="display:none;">
	
		<image style="overflow:visible;opacity:0.61;" width="2118" height="1414" xlink:href="../../../../../Desktop/old_desktop/Screen Shot 2021-11-05 at 3.56.43 PM.png"  transform="matrix(0.3582 0 0 0.3582 -141.4373 -4.25)">
	</image>
	
		<image style="display:inline;overflow:visible;" width="608" height="608" xlink:href="39FEA4E5C48A208A.jpg"  transform="matrix(0.0591 0 0 0.0591 227.4579 338.5211)">
	</image>
	
		<image style="display:inline;overflow:visible;" width="608" height="608" xlink:href="39FEA4E5C48A208B.jpg"  transform="matrix(0.0591 0 0 0.0591 345.4587 393.027)">
	</image>
	
		<image style="display:inline;overflow:visible;" width="609" height="609" xlink:href="39FEA4E5C48A209C.jpg"  transform="matrix(0.0591 0 0 0.0591 391.156 334.2147)">
	</image>
	
		<image style="display:inline;overflow:visible;" width="608" height="609" xlink:href="39FEA4E5C48A209D.jpg"  transform="matrix(0.0591 0 0 0.0591 297.0835 198.9169)">
	</image>
	
		<image style="display:inline;overflow:visible;" width="607" height="607" xlink:href="39FEA4E5C48A209E.jpg"  transform="matrix(0.0591 0 0 0.0591 116.29 201.1638)">
	</image>
	
		<image style="display:inline;overflow:visible;" width="612" height="612" xlink:href="61CDD53567F6B890.jpg"  transform="matrix(0.0591 0 0 0.0591 116.1421 330.3581)">
	</image>
	
		<image style="display:inline;overflow:visible;" width="608" height="608" xlink:href="61CDD53567F6B8A3.jpg"  transform="matrix(0.0371 0 0 0.0371 -538.1524 -493.3055)">
	</image>
	
		<image style="display:inline;overflow:visible;" width="608" height="608" xlink:href="61CDD53567F6B8A4.jpg"  transform="matrix(0.0371 0 0 0.0371 -414.5358 -454.9349)">
	</image>
	
		<image style="display:inline;overflow:visible;" width="609" height="609" xlink:href="61CDD53567F6B8A5.jpg"  transform="matrix(0.0371 0 0 0.0371 -404.0455 -510.0392)">
	</image>
	
		<image style="display:inline;overflow:visible;" width="608" height="609" xlink:href="61CDD53567F6B8A6.jpg"  transform="matrix(0.0371 0 0 0.0371 -496.7575 -573.2612)">
	</image>
	
		<image style="display:inline;overflow:visible;" width="607" height="607" xlink:href="61CDD53567F6B8A7.jpg"  transform="matrix(0.0371 0 0 0.0371 -607.2546 -582.1798)">
	</image>
	
		<image style="display:inline;overflow:visible;" width="612" height="612" xlink:href="61CDD53567F6B8A8.jpg"  transform="matrix(0.0371 0 0 0.0371 -613.2622 -489.4271)">
	</image>
	
		<image style="display:inline;overflow:visible;" width="608" height="608" xlink:href="61CDD53567F6B8AB.jpg"  transform="matrix(0.076 0 0 0.076 921.5069 -408.6796)">
	</image>
	
		<image style="display:inline;overflow:visible;" width="608" height="608" xlink:href="61CDD53567F6B8AA.jpg"  transform="matrix(0.076 0 0 0.076 1081.2588 -338.1889)">
	</image>
	
		<image style="display:inline;overflow:visible;" width="609" height="609" xlink:href="61CDD53567F6B8AF.jpg"  transform="matrix(0.076 0 0 0.076 1139.9731 -413.7542)">
	</image>
	
		<image style="display:inline;overflow:visible;" width="608" height="609" xlink:href="61CDD53567F6B8A2.jpg"  transform="matrix(0.076 0 0 0.076 1019.1037 -587.5921)">
	</image>
	
		<image style="display:inline;overflow:visible;" width="607" height="607" xlink:href="61CDD53567F6B8AC.jpg"  transform="matrix(0.076 0 0 0.076 786.8103 -584.7052)">
	</image>
	
		<image style="display:inline;overflow:visible;" width="612" height="612" xlink:href="61CDD53567F6B8AD.jpg"  transform="matrix(0.076 0 0 0.076 779.076 -418.7093)">
	</image>
</g>
<g id="locator" style="display:none;">
	<circle style="display:inline;fill:#FCFCFC;" cx="80.13" cy="223.429" r="2.601"/>
	<circle style="display:inline;fill:#FCFCFC;" cx="70.53" cy="355.085" r="2.601"/>
	<circle style="display:inline;fill:#FCFCFC;" cx="190.374" cy="348.12" r="2.601"/>
	<circle style="display:inline;fill:#FCFCFC;" cx="256.871" cy="222.421" r="2.601"/>
	<circle style="display:inline;fill:#FCFCFC;" cx="360.057" cy="356.142" r="2.601"/>
	<circle style="display:inline;fill:#FCFCFC;" cx="342.4" cy="379.701" r="2.601"/>
	<circle style="display:inline;fill:#FCFCFC;" cx="-581.289" cy="-561.332" r="1.632"/>
	<circle style="display:inline;fill:#FCFCFC;" cx="-587.311" cy="-478.738" r="1.632"/>
	<circle style="display:inline;fill:#FCFCFC;" cx="-512.127" cy="-483.107" r="1.632"/>
	<circle style="display:inline;fill:#FCFCFC;" cx="-470.41" cy="-561.964" r="1.632"/>
	<circle style="display:inline;fill:#FCFCFC;" cx="-405.677" cy="-478.075" r="1.632"/>
	<circle style="display:inline;fill:#FCFCFC;" cx="-416.754" cy="-463.295" r="1.632"/>
	<circle style="display:inline;fill:#FCFCFC;" cx="740.35" cy="-556.098" r="3.342"/>
	<circle style="display:inline;fill:#FCFCFC;" cx="728.015" cy="-386.939" r="3.342"/>
	<circle style="display:inline;fill:#FCFCFC;" cx="881.998" cy="-395.888" r="3.342"/>
	<circle style="display:inline;fill:#FCFCFC;" cx="967.437" cy="-557.393" r="3.342"/>
	<circle style="display:inline;fill:#FCFCFC;" cx="1100.015" cy="-385.581" r="3.342"/>
	<circle style="display:inline;fill:#FCFCFC;" cx="1077.328" cy="-355.311" r="3.342"/>
	<circle style="display:inline;fill:#FCFCFC;" cx="80.13" cy="223.429" r="2.601"/>
	<circle style="display:inline;fill:#FCFCFC;" cx="70.53" cy="355.085" r="2.601"/>
	<circle style="display:inline;fill:#FCFCFC;" cx="190.374" cy="348.12" r="2.601"/>
	<circle style="display:inline;fill:#FCFCFC;" cx="256.871" cy="222.421" r="2.601"/>
	<circle style="display:inline;fill:#FCFCFC;" cx="360.057" cy="356.142" r="2.601"/>
	<circle style="display:inline;fill:#FCFCFC;" cx="342.4" cy="379.701" r="2.601"/>
</g>
<g id="text">
	<g style="display:none;">
		<rect x="38.189" y="303.073" style="display:inline;fill:none;" width="42.165" height="21.088"/>
		<text transform="matrix(1 0 0 1 43.4539 312.2362)" style="display:inline;"><tspan x="0" y="0" style="fill:#F7CDDD; font-family:'ProximaNova-Regular'; font-size:11px; letter-spacing:3;">Mam</tspan><tspan x="-5.179" y="9" style="fill:#F7CDDD; font-family:'ProximaNova-Regular'; font-size:9px;">840,000+</tspan></text>
	</g>
	<g style="display:none;">
		<text transform="matrix(1 0 0 1 55.1859 236.2144)" style="display:inline;"><tspan x="0" y="0" style="fill:#CED7F2; font-family:'ProximaNova-Regular'; font-size:11px; letter-spacing:3;">Chuj</tspan><tspan x="0.741" y="9" style="fill:#CED7F2; font-family:'ProximaNova-Regular'; font-size:9px;">90,000+</tspan></text>
	</g>
	<g style="display:none;">
		<text transform="matrix(1 0 0 1 183.7345 323.8018)" style="display:inline;"><tspan x="0" y="0" style="fill:#CEF2CE; font-family:'ProximaNova-Regular'; font-size:11px; letter-spacing:3;">Achi</tspan><tspan x="-0.964" y="9" style="fill:#CEF2CE; font-family:'ProximaNova-Regular'; font-size:9px;">160,000+</tspan></text>
	</g>
	<g style="display:none;">
		<text transform="matrix(1 0 0 1 303.9622 360.9638)" style="display:inline;"><tspan x="0" y="0" style="fill:#EFEFCE; font-family:'ProximaNova-Regular'; font-size:11px;">Ch’orti’</tspan><tspan x="10.335" y="9" style="fill:#EFEFCE; font-family:'ProximaNova-Regular'; font-size:9px;">110,000+</tspan></text>
	</g>
	<g style="display:none;">
		<text transform="matrix(1 0 0 1 232.2358 259.0587)" style="display:inline;"><tspan x="0" y="0" style="fill:#E6CEF2; font-family:'ProximaNova-Regular'; font-size:11px; letter-spacing:3;">Q’eqchi’</tspan><tspan x="6.615" y="9" style="fill:#E6CEF2; font-family:'ProximaNova-Regular'; font-size:9px;">1.3 million+</tspan></text>
	</g>
	<g style="display:none;">
		
			<text transform="matrix(1 0 0 1 363.757 354.1166)" style="display:inline;fill:#FFFFFF; font-family:'ProximaNova-Regular'; font-size:11px;">Juan</text>
	</g>
	<g style="display:none;">
		
			<text transform="matrix(1 0 0 1 345.0008 389.5829)" style="display:inline;fill:#FFFFFF; font-family:'ProximaNova-Regular'; font-size:11px;">Wilmer</text>
	</g>
	<g style="display:none;">
		<rect x="73.905" y="343.413" style="display:inline;fill:none;" width="36.366" height="12.738"/>
		
			<text transform="matrix(1 0 0 1 73.9046 352.5761)" style="display:inline;fill:#FFFFFF; font-family:'ProximaNova-Regular'; font-size:11px;">Claudia</text>
	</g>
	<g style="display:none;">
		<rect x="82.731" y="211.456" style="display:inline;fill:none;" width="29.699" height="12.738"/>
		
			<text transform="matrix(1 0 0 1 82.7308 220.619)" style="display:inline;fill:#FFFFFF; font-family:'ProximaNova-Regular'; font-size:11px;">Felipe</text>
	</g>
	<g style="display:none;">
		
			<text transform="matrix(1 0 0 1 260.2708 220.6562)" style="display:inline;fill:#FFFFFF; font-family:'ProximaNova-Regular'; font-size:11px;">Jakelin</text>
	</g>
	<g style="display:none;">
		<rect x="191.097" y="349.842" style="display:inline;fill:none;" width="30.745" height="12.738"/>
		
			<text transform="matrix(1 0 0 1 191.0971 359.0047)" style="display:inline;fill:#FFFFFF; font-family:'ProximaNova-Regular'; font-size:11px;">Carlos</text>
	</g>
	<g>
		<rect x="-629.789" y="-621.781" style="fill:none;" width="127.293" height="51.462"/>
		<text transform="matrix(1 0 0 1 -614.5009 -613.4509)"><tspan x="0" y="0" style="fill:#FFFFFF; font-family:'ProximaNova-Regular'; font-size:10px;">Water defenders Nery </tspan><tspan x="-14.64" y="10" style="fill:#FFFFFF; font-family:'ProximaNova-Regular'; font-size:10px;">Esteban Pedro and Domingo </tspan><tspan x="-12.04" y="20" style="fill:#FFFFFF; font-family:'ProximaNova-Regular'; font-size:10px;">Esteban Pedro, targeted for </tspan><tspan x="-13.47" y="30" style="fill:#FFFFFF; font-family:'ProximaNova-Regular'; font-size:10px;">resistance to a hydro dam in </tspan><tspan x="-3.64" y="40" style="fill:#FFFFFF; font-family:'ProximaNova-Regular'; font-size:10px;">the Ixquisis microregion</tspan></text>
	</g>
	<g>
		<text transform="matrix(1 0 0 1 -203.0842 641.5409)"><tspan x="0" y="0" style="fill:#FFFFFF; font-family:'ProximaNova-Regular'; font-size:11px;">Much of the population in the </tspan><tspan x="-6.358" y="11" style="fill:#FFFFFF; font-family:'ProximaNova-Regular'; font-size:11px;">Western highlands is Indigenous</tspan></text>
	</g>
	<g>
		<text transform="matrix(1 0 0 1 206.4416 641.5405)"><tspan x="0" y="0" style="fill:#FFFFFF; font-family:'ProximaNova-Regular'; font-size:18px;">|</tspan><tspan x="-74.258" y="11" style="fill:#FFFFFF; font-family:'ProximaNova-Regular'; font-size:11px;">While most of Guatemala City’s </tspan><tspan x="-85.456" y="22" style="fill:#FFFFFF; font-family:'ProximaNova-Regular'; font-size:11px;">3 million people are Ladino, internal </tspan><tspan x="-73.461" y="33" style="fill:#FFFFFF; font-family:'ProximaNova-Regular'; font-size:11px;">migration from rural Indigneous</tspan><tspan x="-58.914" y="44" style="fill:#FFFFFF; font-family:'ProximaNova-Regular'; font-size:11px;"> communities is common.</tspan></text>
	</g>
	<g>
		<text transform="matrix(1 0 0 1 614.8294 0.3995)"><tspan x="0" y="0" style="fill:#FFFFFF; font-family:'ProximaNova-Regular'; font-size:12px;">Much of the population in the </tspan><tspan x="-6.936" y="12" style="fill:#FFFFFF; font-family:'ProximaNova-Regular'; font-size:12px;">Western highlands is Indigenous</tspan></text>
	</g>
	<g>
		<text transform="matrix(1 0 0 1 958.6658 1.185250e-04)"><tspan x="0" y="0" style="fill:#FFFFFF; font-family:'ProximaNova-Regular'; font-size:20px;">|</tspan><tspan x="-80.971" y="12" style="fill:#FFFFFF; font-family:'ProximaNova-Regular'; font-size:12px;">While most of Guatemala City’s </tspan><tspan x="-93.187" y="24" style="fill:#FFFFFF; font-family:'ProximaNova-Regular'; font-size:12px;">3 million people are Ladino, internal </tspan><tspan x="-80.101" y="36" style="fill:#FFFFFF; font-family:'ProximaNova-Regular'; font-size:12px;">migration from rural Indigneous</tspan><tspan x="-64.231" y="48" style="fill:#FFFFFF; font-family:'ProximaNova-Regular'; font-size:12px;"> communities is common.</tspan></text>
	</g>
	
		<line style="display:none;fill:none;stroke:#FFFFFF;stroke-miterlimit:10;" x1="-574.339" y1="-556.36" x2="-574.339" y2="-570.819"/>
	<g>
		<rect x="-459.853" y="-589.497" style="fill:none;" width="128.59" height="31.78"/>
		<text transform="matrix(1 0 0 1 -457.3016 -581.1672)"><tspan x="0" y="0" style="fill:#FFFFFF; font-family:'ProximaNova-Regular'; font-size:10px;">Five members of campesino </tspan><tspan x="-1.025" y="10" style="fill:#FFFFFF; font-family:'ProximaNova-Regular'; font-size:10px;">group CODECA, targeted for </tspan><tspan x="1.215" y="20" style="fill:#FFFFFF; font-family:'ProximaNova-Regular'; font-size:10px;">resistance to land evictions.</tspan></text>
	</g>
	<g>
		<rect x="-439.268" y="-452.898" style="fill:none;" width="87.98" height="55.644"/>
		<text transform="matrix(1 0 0 1 -439.2673 -444.5675)"><tspan x="0" y="0" style="fill:#FFFFFF; font-family:'ProximaNova-Regular'; font-size:10px;">Ch’orti’  defender </tspan><tspan x="0" y="10" style="fill:#FFFFFF; font-family:'ProximaNova-Regular'; font-size:10px;">Medardo Alonzo </tspan><tspan x="0" y="20" style="fill:#FFFFFF; font-family:'ProximaNova-Regular'; font-size:10px;">Lucero, targeted for </tspan><tspan x="0" y="30" style="fill:#FFFFFF; font-family:'ProximaNova-Regular'; font-size:10px;">resistance to mining</tspan></text>
	</g>
	
		<line style="display:none;fill:none;stroke:#FFFFFF;stroke-miterlimit:10;" x1="-394.965" y1="-543.25" x2="-394.965" y2="-557.709"/>
	
		<line style="display:none;fill:none;stroke:#FFFFFF;stroke-miterlimit:10;" x1="-412.635" y1="-452.915" x2="-412.635" y2="-461.847"/>
	<g>
		<rect x="-581.111" y="-486.035" style="fill:none;" width="158.532" height="34.097"/>
		<text transform="matrix(1 0 0 1 -566.188 -477.7047)"><tspan x="0" y="0" style="fill:#FFFFFF; font-family:'ProximaNova-Regular'; font-size:10px;">Maya Achi ancestral authority </tspan><tspan x="-1.88" y="10" style="fill:#FFFFFF; font-family:'ProximaNova-Regular'; font-size:10px;">Paulina Cruz Ruiz, targeted for </tspan><tspan x="20.375" y="20" style="fill:#FFFFFF; font-family:'ProximaNova-Regular'; font-size:10px;">resistance to mining</tspan></text>
	</g>
	
		<line style="display:none;fill:none;stroke:#FFFFFF;stroke-miterlimit:10;" x1="-501.745" y1="-486.004" x2="-501.745" y2="-493.592"/>
	
		<rect x="-631.808" y="-701.499" style="display:none;opacity:0.08;fill:none;stroke:#FFFFFF;stroke-width:0.001;stroke-miterlimit:10;" width="300" height="313.611"/>
	<g style="display:none;">
		<rect x="3.605" y="162.881" style="display:inline;fill:none;" width="174.779" height="46.025"/>
		<text transform="matrix(1 0 0 1 16.8883 172.0439)" style="display:inline;"><tspan x="0" y="0" style="fill:#FFFFFF; font-family:'ProximaNova-Regular'; font-size:11px;">Water defenders Nery Esteban </tspan><tspan x="-12.326" y="11" style="fill:#FFFFFF; font-family:'ProximaNova-Regular'; font-size:11px;">Pedro and Domingo Esteban Pedro, </tspan><tspan x="-6.11" y="22" style="fill:#FFFFFF; font-family:'ProximaNova-Regular'; font-size:11px;">targeted for resistance to a hydro </tspan><tspan x="-0.704" y="33" style="fill:#FFFFFF; font-family:'ProximaNova-Regular'; font-size:11px;">dam in the Ixquisis microregion</tspan></text>
	</g>
	<line style="fill:none;stroke:#FFFFFF;stroke-miterlimit:10;" x1="91.021" y1="231.185" x2="91.021" y2="208.108"/>
	<g style="display:none;">
		<rect x="297.667" y="196.204" style="display:inline;fill:none;" width="159.281" height="34.079"/>
		<text transform="matrix(1 0 0 1 309.3884 205.3671)" style="display:inline;"><tspan x="0" y="0" style="fill:#FFFFFF; font-family:'ProximaNova-Regular'; font-size:11px;">Five members of campesino </tspan><tspan x="-1.127" y="11" style="fill:#FFFFFF; font-family:'ProximaNova-Regular'; font-size:11px;">group CODECA, targeted for </tspan><tspan x="1.336" y="22" style="fill:#FFFFFF; font-family:'ProximaNova-Regular'; font-size:11px;">resistance to land evictions.</tspan></text>
	</g>
	<g style="display:none;">
		<rect x="278.853" y="396.315" style="display:inline;fill:none;" width="195.908" height="24.965"/>
		<text transform="matrix(1 0 0 1 278.8528 405.4774)" style="display:inline;"><tspan x="0" y="0" style="fill:#FFFFFF; font-family:'ProximaNova-Regular'; font-size:11px;">Ch’orti’  defender Medardo Alonzo </tspan><tspan x="0" y="11" style="fill:#FFFFFF; font-family:'ProximaNova-Regular'; font-size:11px;">Lucero, targeted for resistance to mining</tspan></text>
	</g>
	<g style="display:none;">
		<text transform="matrix(1 0 0 1 218.1913 462.3707)" style="display:inline;"><tspan x="0" y="0" style="fill:#FFFFFF; font-family:'ProximaNova-Regular'; font-size:11px;">Xinka defender Alejandro Hernández Garcíal,  </tspan><tspan x="0" y="11" style="fill:#FFFFFF; font-family:'ProximaNova-Regular'; font-size:11px;">targeted for resistance to mining</tspan></text>
	</g>
	<line style="fill:none;stroke:#FFFFFF;stroke-miterlimit:10;" x1="377.057" y1="253.359" x2="377.057" y2="230.282"/>
	<line style="fill:none;stroke:#FFFFFF;stroke-miterlimit:10;" x1="348.605" y1="396.287" x2="348.605" y2="382.031"/>
	<g style="display:none;">
		<rect x="80.213" y="343.427" style="display:inline;fill:none;" width="253.023" height="25.005"/>
		<text transform="matrix(1 0 0 1 91.4953 352.5898)" style="display:inline;"><tspan x="0" y="0" style="fill:#FFFFFF; font-family:'ProximaNova-Regular'; font-size:11px;">Maya Achi ancestral authority Paulina Cruz Ruiz, </tspan><tspan x="37.047" y="11" style="fill:#FFFFFF; font-family:'ProximaNova-Regular'; font-size:11px;">targeted for resistance to mining</tspan></text>
	</g>
	<line style="fill:none;stroke:#FFFFFF;stroke-miterlimit:10;" x1="206.882" y1="343.476" x2="206.882" y2="331.365"/>
	<line style="fill:none;stroke:#FFFFFF;stroke-miterlimit:10;" x1="201.686" y1="464.727" x2="215.441" y2="464.727"/>
	<g>
		<rect x="656.613" y="-618.727" style="fill:none;" width="196.427" height="50.425"/>
		<text transform="matrix(1 0 0 1 656.6748 -608.7313)"><tspan x="0" y="0" style="fill:#FFFFFF; font-family:'ProximaNova-Regular'; font-size:12px;">Water defenders Nery Esteban Pedro </tspan><tspan x="21.173" y="12" style="fill:#FFFFFF; font-family:'ProximaNova-Regular'; font-size:12px;">and Domingo Esteban Pedro, </tspan><tspan x="10.644" y="24" style="fill:#FFFFFF; font-family:'ProximaNova-Regular'; font-size:12px;">targeted for resistance to a hydro </tspan><tspan x="16.542" y="36" style="fill:#FFFFFF; font-family:'ProximaNova-Regular'; font-size:12px;">dam in the Ixquisis microregion</tspan></text>
	</g>
	
		<line style="display:none;fill:none;stroke:#FFFFFF;stroke-miterlimit:10;" x1="754.827" y1="-545.877" x2="754.827" y2="-569.108"/>
	<g>
		<rect x="1032.486" y="-579.301" style="fill:none;" width="178.901" height="38.292"/>
		<text transform="matrix(1 0 0 1 1047.8433 -569.3046)"><tspan x="0" y="0" style="fill:#FFFFFF; font-family:'ProximaNova-Regular'; font-size:12px;">Five members of campesino </tspan><tspan x="-1.23" y="12" style="fill:#FFFFFF; font-family:'ProximaNova-Regular'; font-size:12px;">group CODECA, targeted for </tspan><tspan x="1.458" y="24" style="fill:#FFFFFF; font-family:'ProximaNova-Regular'; font-size:12px;">resistance to land evictions.</tspan></text>
	</g>
	<g>
		<rect x="976.234" y="-333.598" style="fill:none;" width="217.827" height="26.386"/>
		<text transform="matrix(1 0 0 1 994.2793 -323.602)"><tspan x="0" y="0" style="fill:#FFFFFF; font-family:'ProximaNova-Regular'; font-size:12px;">Ch’orti’  defender Medardo Alonzo </tspan><tspan x="-15.474" y="12" style="fill:#FFFFFF; font-family:'ProximaNova-Regular'; font-size:12px;">Lucero, targeted for resistance to mining</tspan></text>
	</g>
	<g>
		<text transform="matrix(1 0 0 1 918.0305 -249.1847)"><tspan x="0" y="0" style="fill:#FFFFFF; font-family:'ProximaNova-Regular'; font-size:12px;">Xinka defender Alejandro Hernández Garcíal,  </tspan><tspan x="0" y="12" style="fill:#FFFFFF; font-family:'ProximaNova-Regular'; font-size:12px;">targeted for resistance to mining</tspan></text>
	</g>
	
		<line style="display:none;fill:none;stroke:#FFFFFF;stroke-miterlimit:10;" x1="1121.912" y1="-517.42" x2="1121.912" y2="-541.509"/>
	
		<line style="display:none;fill:none;stroke:#FFFFFF;stroke-miterlimit:10;" x1="1085.398" y1="-333.993" x2="1085.398" y2="-352.289"/>
	<g>
		<rect x="787.323" y="-402.332" style="fill:none;" width="232.838" height="28.855"/>
		<text transform="matrix(1 0 0 1 792.102 -392.3355)"><tspan x="0" y="0" style="fill:#FFFFFF; font-family:'ProximaNova-Regular'; font-size:12px;">Maya Achi ancestral authority Paulina Cruz </tspan><tspan x="12.288" y="12" style="fill:#FFFFFF; font-family:'ProximaNova-Regular'; font-size:12px;">Ruiz, targeted for resistance to mining</tspan></text>
	</g>
	
		<line style="display:none;fill:none;stroke:#FFFFFF;stroke-miterlimit:10;" x1="903.517" y1="-401.768" x2="903.517" y2="-417.311"/>
	<line style="display:none;fill:none;stroke:#FFFFFF;stroke-miterlimit:10;" x1="896.848" y1="-246.16" x2="914.502" y2="-246.16"/>
</g>
</svg>
